<?xml version="1.0" standalone="no"?>
<!DOCTYPE svg PUBLIC "-//W3C//DTD SVG 20010904//EN"
 "http://www.w3.org/TR/2001/REC-SVG-20010904/DTD/svg10.dtd">
<svg version="1.0" xmlns="http://www.w3.org/2000/svg"
 width="217.000000pt" height="217.000000pt" viewBox="0 0 217.000000 217.000000"
 preserveAspectRatio="xMidYMid meet">
<metadata>
Created by potrace 1.11, written by Peter Selinger 2001-2013
</metadata>
<g transform="translate(0.000000,217.000000) scale(0.100000,-0.100000)"
fill="#000000" stroke="none">
<path d="M1620 1959 c-62 -26 -100 -85 -100 -157 0 -57 27 -104 80 -140 29
-20 44 -23 93 -20 92 7 148 61 154 150 4 60 -21 116 -69 151 -31 23 -120 32
-158 16z"/>
<path d="M880 1799 c-124 -24 -244 -122 -303 -246 -30 -63 -32 -76 -32 -173 0
-92 3 -112 26 -160 51 -107 144 -178 366 -277 250 -110 307 -162 307 -279 0
-161 -136 -285 -299 -272 -119 10 -211 85 -252 204 l-18 51 -102 -24 c-69 -17
-103 -29 -103 -38 0 -27 43 -130 75 -180 42 -66 129 -147 193 -179 308 -156
685 45 721 384 15 145 -22 254 -120 350 -61 60 -147 110 -335 193 -132 58
-209 108 -230 149 -50 96 18 241 132 278 54 18 145 7 197 -23 43 -25 97 -104
97 -141 0 -21 17 -20 125 7 106 27 106 27 50 143 -87 179 -287 274 -495 233z"/>
</g>
</svg>
